<svg xmlns="http://www.w3.org/2000/svg" xmlns:xlink="http://www.w3.org/1999/xlink" width="506" zoomAndPan="magnify" viewBox="0 0 379.5 102.749999" height="137" preserveAspectRatio="xMidYMid meet" version="1.2"><defs><clipPath id="f19e420fb7"><path d="M 0.210938 0 L 89 0 L 89 101.988281 L 0.210938 101.988281 Z M 0.210938 0 "/></clipPath></defs><g id="db7f9d031c"><g clip-rule="nonzero" clip-path="url(#f19e420fb7)"><path style=" stroke:none;fill-rule:evenodd;fill:#000000;fill-opacity:1;" d="M 75.414062 36.816406 L 72.265625 35.023438 L 44.503906 18.996094 L 36.296875 23.703125 L 44.503906 28.410156 L 49.898438 31.546875 L 61.363281 38.160156 L 64.0625 39.726562 L 67.210938 41.523438 L 75.414062 46.230469 L 83.621094 41.523438 Z M 0.210938 44.433594 L 0.210938 53.960938 L 8.417969 49.140625 L 16.621094 44.433594 L 24.828125 39.726562 L 27.976562 37.9375 L 36.296875 42.644531 L 44.503906 47.351562 L 47.648438 49.140625 L 55.855469 53.960938 L 59 55.753906 L 67.210938 51.050781 L 67.210938 50.9375 L 59 46.230469 L 55.855469 44.433594 L 44.503906 37.9375 L 36.296875 33.230469 L 27.976562 28.410156 L 18.984375 33.675781 L 16.621094 35.023438 Z M 88.679688 35.023438 L 88.679688 25.496094 L 66.644531 12.832031 L 44.503906 0.0546875 L 22.355469 12.832031 L 19.769531 14.289062 L 0.210938 25.496094 L 0.210938 35.023438 L 8.417969 30.316406 L 19.65625 23.816406 L 27.976562 18.996094 L 44.503906 9.585938 L 80.472656 30.316406 L 83.621094 32.109375 Z M 13.589844 55.753906 L 13.472656 55.753906 L 5.378906 60.460938 L 13.472656 65.167969 L 16.621094 66.960938 L 44.503906 82.988281 L 52.707031 78.28125 L 44.503906 73.574219 L 38.992188 70.4375 L 27.636719 63.824219 L 24.828125 62.253906 L 21.683594 60.460938 Z M 88.679688 57.546875 L 88.679688 48.136719 L 80.472656 52.84375 L 72.265625 57.546875 L 64.0625 62.253906 L 60.914062 64.046875 L 52.707031 59.339844 L 44.503906 54.636719 L 41.355469 52.84375 L 33.148438 48.136719 L 30 46.230469 L 21.683594 51.050781 L 21.789062 51.050781 L 30 55.753906 L 33.148438 57.546875 L 44.503906 64.046875 L 52.707031 68.867188 L 60.914062 73.574219 L 72.265625 66.960938 L 73.054688 66.511719 L 80.472656 62.253906 Z M 0.210938 66.960938 L 0.210938 76.488281 L 22.355469 89.152344 L 44.503906 101.929688 L 66.535156 89.152344 L 69.117188 87.695312 L 88.679688 76.488281 L 88.679688 66.960938 L 64.285156 81.085938 L 60.914062 82.988281 L 44.503906 92.515625 L 8.417969 71.78125 L 5.269531 69.875 Z M 0.210938 66.960938 "/></g><g style="fill:#000000;fill-opacity:1;"><g transform="translate(101.074736, 65.611161)"><path style="stroke:none" d="M 3.625 -30.15625 L 26.578125 -30.15625 L 26.578125 -24.125 L 10.25 -24.125 L 10.25 -17.703125 L 24.640625 -17.703125 L 24.640625 -11.671875 L 10.25 -11.671875 L 10.25 0 L 3.625 0 Z M 3.625 -30.15625 "/></g></g><g style="fill:#000000;fill-opacity:1;"><g transform="translate(134.545022, 65.611161)"><path style="stroke:none" d="M 3.921875 -30.15625 L 10.546875 -30.15625 L 10.546875 0 L 3.921875 0 Z M 3.921875 -30.15625 "/></g></g><g style="fill:#000000;fill-opacity:1;"><g transform="translate(154.23142, 65.611161)"><path style="stroke:none" d="M 3.625 -30.15625 L 9.734375 -30.15625 L 23.859375 -11.59375 L 23.859375 -30.15625 L 30.40625 -30.15625 L 30.40625 0 L 24.765625 0 L 10.171875 -19.171875 L 10.171875 0 L 3.625 0 Z M 3.625 -30.15625 "/></g></g><g style="fill:#000000;fill-opacity:1;"><g transform="translate(193.4737, 65.611161)"><path style="stroke:none" d="M 17.75 0.515625 C 15.539062 0.515625 13.488281 0.113281 11.59375 -0.6875 C 9.695312 -1.488281 8.054688 -2.585938 6.671875 -3.984375 C 5.296875 -5.378906 4.21875 -7.023438 3.4375 -8.921875 C 2.664062 -10.816406 2.28125 -12.835938 2.28125 -14.984375 L 2.28125 -15.078125 C 2.28125 -17.234375 2.664062 -19.25 3.4375 -21.125 C 4.21875 -23.007812 5.296875 -24.660156 6.671875 -26.078125 C 8.054688 -27.503906 9.707031 -28.625 11.625 -29.4375 C 13.550781 -30.257812 15.675781 -30.671875 18 -30.671875 C 19.414062 -30.671875 20.703125 -30.554688 21.859375 -30.328125 C 23.023438 -30.097656 24.082031 -29.78125 25.03125 -29.375 C 25.976562 -28.976562 26.851562 -28.488281 27.65625 -27.90625 C 28.457031 -27.332031 29.203125 -26.703125 29.890625 -26.015625 L 25.671875 -21.15625 C 24.492188 -22.21875 23.296875 -23.046875 22.078125 -23.640625 C 20.859375 -24.242188 19.488281 -24.546875 17.96875 -24.546875 C 16.695312 -24.546875 15.523438 -24.300781 14.453125 -23.8125 C 13.378906 -23.332031 12.453125 -22.660156 11.671875 -21.796875 C 10.898438 -20.929688 10.296875 -19.929688 9.859375 -18.796875 C 9.429688 -17.671875 9.21875 -16.457031 9.21875 -15.15625 L 9.21875 -15.078125 C 9.21875 -13.785156 9.429688 -12.5625 9.859375 -11.40625 C 10.296875 -10.257812 10.894531 -9.253906 11.65625 -8.390625 C 12.414062 -7.535156 13.332031 -6.851562 14.40625 -6.34375 C 15.488281 -5.84375 16.675781 -5.59375 17.96875 -5.59375 C 19.6875 -5.59375 21.140625 -5.910156 22.328125 -6.546875 C 23.523438 -7.179688 24.710938 -8.039062 25.890625 -9.125 L 30.109375 -4.875 C 29.335938 -4.039062 28.535156 -3.289062 27.703125 -2.625 C 26.867188 -1.96875 25.957031 -1.398438 24.96875 -0.921875 C 23.976562 -0.453125 22.890625 -0.0976562 21.703125 0.140625 C 20.523438 0.390625 19.207031 0.515625 17.75 0.515625 Z M 17.75 0.515625 "/></g></g><g style="fill:#000000;fill-opacity:1;"><g transform="translate(230.476101, 65.611161)"><path style="stroke:none" d="M 3.625 -30.15625 L 10.25 -30.15625 L 10.25 -18.21875 L 22.484375 -18.21875 L 22.484375 -30.15625 L 29.125 -30.15625 L 29.125 0 L 22.484375 0 L 22.484375 -12.109375 L 10.25 -12.109375 L 10.25 0 L 3.625 0 Z M 3.625 -30.15625 "/></g></g><g style="fill:#000000;fill-opacity:1;"><g transform="translate(268.426145, 65.611161)"><path style="stroke:none" d="M 3.921875 -30.15625 L 10.546875 -30.15625 L 10.546875 0 L 3.921875 0 Z M 3.921875 -30.15625 "/></g></g><g style="fill:#000000;fill-opacity:1;"><g transform="translate(288.112543, 65.611161)"><path style="stroke:none" d="M 14.34375 0.4375 C 12.050781 0.4375 9.796875 0.0390625 7.578125 -0.75 C 5.367188 -1.539062 3.359375 -2.753906 1.546875 -4.390625 L 5.46875 -9.09375 C 6.84375 -7.96875 8.253906 -7.070312 9.703125 -6.40625 C 11.160156 -5.75 12.75 -5.421875 14.46875 -5.421875 C 15.851562 -5.421875 16.925781 -5.671875 17.6875 -6.171875 C 18.445312 -6.679688 18.828125 -7.378906 18.828125 -8.265625 L 18.828125 -8.359375 C 18.828125 -8.785156 18.742188 -9.164062 18.578125 -9.5 C 18.421875 -9.832031 18.117188 -10.140625 17.671875 -10.421875 C 17.234375 -10.710938 16.617188 -11 15.828125 -11.28125 C 15.035156 -11.570312 14.007812 -11.875 12.75 -12.1875 C 11.226562 -12.5625 9.847656 -12.976562 8.609375 -13.4375 C 7.378906 -13.894531 6.332031 -14.460938 5.46875 -15.140625 C 4.601562 -15.816406 3.929688 -16.65625 3.453125 -17.65625 C 2.984375 -18.664062 2.75 -19.914062 2.75 -21.40625 L 2.75 -21.5 C 2.75 -22.875 3.007812 -24.113281 3.53125 -25.21875 C 4.050781 -26.320312 4.773438 -27.273438 5.703125 -28.078125 C 6.640625 -28.890625 7.753906 -29.507812 9.046875 -29.9375 C 10.335938 -30.363281 11.757812 -30.578125 13.3125 -30.578125 C 15.519531 -30.578125 17.550781 -30.25 19.40625 -29.59375 C 21.257812 -28.9375 22.960938 -27.988281 24.515625 -26.75 L 21.0625 -21.75 C 19.71875 -22.675781 18.394531 -23.40625 17.09375 -23.9375 C 15.800781 -24.46875 14.507812 -24.734375 13.21875 -24.734375 C 11.925781 -24.734375 10.957031 -24.476562 10.3125 -23.96875 C 9.664062 -23.46875 9.34375 -22.84375 9.34375 -22.09375 L 9.34375 -22.015625 C 9.34375 -21.523438 9.4375 -21.097656 9.625 -20.734375 C 9.8125 -20.378906 10.148438 -20.054688 10.640625 -19.765625 C 11.128906 -19.484375 11.796875 -19.210938 12.640625 -18.953125 C 13.492188 -18.691406 14.566406 -18.390625 15.859375 -18.046875 C 17.378906 -17.648438 18.734375 -17.195312 19.921875 -16.6875 C 21.117188 -16.1875 22.125 -15.582031 22.9375 -14.875 C 23.757812 -14.175781 24.378906 -13.351562 24.796875 -12.40625 C 25.210938 -11.457031 25.421875 -10.320312 25.421875 -9 L 25.421875 -8.921875 C 25.421875 -7.421875 25.144531 -6.085938 24.59375 -4.921875 C 24.050781 -3.765625 23.289062 -2.789062 22.3125 -2 C 21.332031 -1.207031 20.164062 -0.601562 18.8125 -0.1875 C 17.46875 0.226562 15.976562 0.4375 14.34375 0.4375 Z M 14.34375 0.4375 "/></g></g><g style="fill:#000000;fill-opacity:1;"><g transform="translate(320.893625, 65.611161)"><path style="stroke:none" d="M 3.625 -30.15625 L 26.359375 -30.15625 L 26.359375 -24.25 L 10.203125 -24.25 L 10.203125 -18.140625 L 24.421875 -18.140625 L 24.421875 -12.234375 L 10.203125 -12.234375 L 10.203125 -5.90625 L 26.578125 -5.90625 L 26.578125 0 L 3.625 0 Z M 3.625 -30.15625 "/></g></g></g></svg>