<svg xmlns="http://www.w3.org/2000/svg" xmlns:xlink="http://www.w3.org/1999/xlink" width="500" zoomAndPan="magnify" viewBox="0 0 375 374.999991" height="500" preserveAspectRatio="xMidYMid meet" version="1.2"><defs><clipPath id="8ce3e31d00"><path d="M 31.171875 7.292969 L 343.921875 7.292969 L 343.921875 368 L 31.171875 368 Z M 31.171875 7.292969 "/></clipPath></defs><g id="92863e84e3"><g clip-rule="nonzero" clip-path="url(#8ce3e31d00)"><path style=" stroke:none;fill-rule:evenodd;fill:#000000;fill-opacity:1;" d="M 296.957031 137.394531 L 285.828125 131.054688 L 187.703125 74.414062 L 158.703125 91.050781 L 187.703125 107.6875 L 206.769531 118.773438 L 247.292969 142.144531 L 256.832031 147.679688 L 267.957031 154.03125 L 296.957031 170.667969 L 325.957031 154.03125 Z M 31.171875 164.316406 L 31.171875 197.984375 L 60.171875 180.953125 L 118.171875 147.679688 L 129.296875 141.355469 L 158.703125 157.992188 L 187.703125 174.628906 L 198.816406 180.953125 L 227.832031 197.984375 L 238.945312 204.320312 L 267.957031 187.699219 L 267.957031 187.304688 L 238.945312 170.667969 L 227.832031 164.316406 L 187.703125 141.355469 L 158.703125 124.71875 L 129.296875 107.6875 L 97.515625 126.292969 L 89.171875 131.054688 Z M 343.828125 131.054688 L 343.828125 97.386719 L 265.964844 52.632812 L 187.703125 7.472656 L 109.429688 52.632812 L 100.296875 57.777344 L 31.171875 97.386719 L 31.171875 131.054688 L 60.171875 114.417969 L 99.890625 91.445312 L 129.296875 74.414062 L 187.703125 41.152344 L 314.828125 114.417969 L 325.957031 120.753906 Z M 78.449219 204.320312 L 78.042969 204.320312 L 49.4375 220.957031 L 78.042969 237.59375 L 89.171875 243.933594 L 187.703125 300.574219 L 216.703125 283.9375 L 187.703125 267.300781 L 168.230469 256.214844 L 128.101562 232.84375 L 118.167969 227.296875 L 107.054688 220.957031 Z M 343.828125 210.660156 L 343.828125 177.398438 L 314.828125 194.035156 L 285.828125 210.660156 L 256.832031 227.296875 L 245.703125 233.632812 L 216.703125 216.996094 L 187.703125 200.371094 L 176.578125 194.035156 L 147.578125 177.398438 L 136.449219 170.667969 L 107.058594 187.699219 L 107.4375 187.699219 L 136.449219 204.320312 L 147.578125 210.65625 L 187.703125 233.632812 L 216.703125 250.660156 L 245.703125 267.300781 L 285.828125 243.929688 L 288.609375 242.34375 L 314.828125 227.292969 Z M 31.171875 243.933594 L 31.171875 277.601562 L 109.429688 322.351562 L 187.703125 367.515625 L 265.570312 322.351562 L 274.703125 317.210938 L 343.828125 277.601562 L 343.828125 243.933594 L 257.617188 293.84375 L 245.703125 300.574219 L 187.703125 334.242188 L 60.171875 260.960938 L 49.042969 254.230469 Z M 31.171875 243.933594 "/></g></g></svg>